<svg width="748" height="747" viewBox="0 0 748 747" fill="none" xmlns="http://www.w3.org/2000/svg">
<path d="M0 53C0 23.7289 23.7289 0 53 0H364V364H0V53Z" fill="black"/>
<mask id="path-2-outside-1_2003_8" maskUnits="userSpaceOnUse" x="91" y="77" width="182" height="191" fill="black">
<rect fill="white" x="91" y="77" width="182" height="191"/>
<path d="M143.9 247.3L118.6 241.14L161.28 172.94L123 103.86L173.82 97.7L193.18 152.04L218.26 97.7L243.56 103.64L200.88 171.62L244.22 240.7L193.4 247.08L169.64 191.42L143.9 247.3Z"/>
</mask>
<path d="M143.9 247.3L118.6 241.14L161.28 172.94L123 103.86L173.82 97.7L193.18 152.04L218.26 97.7L243.56 103.64L200.88 171.62L244.22 240.7L193.4 247.08L169.64 191.42L143.9 247.3Z" fill="black"/>
<path d="M143.9 247.3L139.878 263.817L153.483 267.13L159.341 254.412L143.9 247.3ZM118.6 241.14L104.189 232.122L91.6955 252.086L114.578 257.657L118.6 241.14ZM161.28 172.94L175.691 181.958L181.006 173.464L176.15 164.7L161.28 172.94ZM123 103.86L120.954 86.9835L95.8956 90.0209L108.13 112.1L123 103.86ZM173.82 97.7L189.834 91.9946L185.271 79.1875L171.774 80.8235L173.82 97.7ZM193.18 152.04L177.166 157.745L191.152 197.001L208.615 159.164L193.18 152.04ZM218.26 97.7L222.146 81.15L208.639 77.9788L202.825 90.576L218.26 97.7ZM243.56 103.64L257.958 112.679L270.609 92.5284L247.446 87.09L243.56 103.64ZM200.88 171.62L186.482 162.581L180.809 171.617L186.48 180.655L200.88 171.62ZM244.22 240.7L246.338 257.568L272.788 254.247L258.62 231.665L244.22 240.7ZM193.4 247.08L177.765 253.754L182.798 265.544L195.518 263.948L193.4 247.08ZM169.64 191.42L185.275 184.746L170.231 149.504L154.199 184.308L169.64 191.42ZM143.9 247.3L147.922 230.783L122.622 224.623L118.6 241.14L114.578 257.657L139.878 263.817L143.9 247.3ZM118.6 241.14L133.011 250.158L175.691 181.958L161.28 172.94L146.869 163.922L104.189 232.122L118.6 241.14ZM161.28 172.94L176.15 164.7L137.87 95.6202L123 103.86L108.13 112.1L146.41 181.18L161.28 172.94ZM123 103.86L125.046 120.736L175.866 114.576L173.82 97.7L171.774 80.8235L120.954 86.9835L123 103.86ZM173.82 97.7L157.806 103.405L177.166 157.745L193.18 152.04L209.194 146.335L189.834 91.9946L173.82 97.7ZM193.18 152.04L208.615 159.164L233.695 104.824L218.26 97.7L202.825 90.576L177.745 144.916L193.18 152.04ZM218.26 97.7L214.374 114.25L239.674 120.19L243.56 103.64L247.446 87.09L222.146 81.15L218.26 97.7ZM243.56 103.64L229.162 94.6007L186.482 162.581L200.88 171.62L215.278 180.659L257.958 112.679L243.56 103.64ZM200.88 171.62L186.48 180.655L229.82 249.735L244.22 240.7L258.62 231.665L215.28 162.585L200.88 171.62ZM244.22 240.7L242.102 223.832L191.282 230.212L193.4 247.08L195.518 263.948L246.338 257.568L244.22 240.7ZM193.4 247.08L209.035 240.406L185.275 184.746L169.64 191.42L154.005 198.094L177.765 253.754L193.4 247.08ZM169.64 191.42L154.199 184.308L128.459 240.188L143.9 247.3L159.341 254.412L185.081 198.532L169.64 191.42Z" fill="white" mask="url(#path-2-outside-1_2003_8)"/>
<path d="M384 383H748V694C748 723.271 724.271 747 695 747H384V383Z" fill="black"/>
<mask id="path-5-outside-2_2003_8" maskUnits="userSpaceOnUse" x="475" y="460" width="182" height="191" fill="black">
<rect fill="white" x="475" y="460" width="182" height="191"/>
<path d="M527.9 630.3L502.6 624.14L545.28 555.94L507 486.86L557.82 480.7L577.18 535.04L602.26 480.7L627.56 486.64L584.88 554.62L628.22 623.7L577.4 630.08L553.64 574.42L527.9 630.3Z"/>
</mask>
<path d="M527.9 630.3L502.6 624.14L545.28 555.94L507 486.86L557.82 480.7L577.18 535.04L602.26 480.7L627.56 486.64L584.88 554.62L628.22 623.7L577.4 630.08L553.64 574.42L527.9 630.3Z" fill="black"/>
<path d="M527.9 630.3L523.878 646.817L537.483 650.13L543.341 637.412L527.9 630.3ZM502.6 624.14L488.189 615.122L475.695 635.086L498.578 640.657L502.6 624.14ZM545.28 555.94L559.691 564.958L565.006 556.464L560.15 547.7L545.28 555.94ZM507 486.86L504.954 469.984L479.896 473.021L492.13 495.1L507 486.86ZM557.82 480.7L573.834 474.995L569.271 462.188L555.774 463.824L557.82 480.7ZM577.18 535.04L561.166 540.745L575.152 580.001L592.615 542.164L577.18 535.04ZM602.26 480.7L606.146 464.15L592.639 460.979L586.825 473.576L602.26 480.7ZM627.56 486.64L641.958 495.679L654.609 475.528L631.446 470.09L627.56 486.64ZM584.88 554.62L570.482 545.581L564.809 554.617L570.48 563.655L584.88 554.62ZM628.22 623.7L630.338 640.568L656.788 637.247L642.62 614.665L628.22 623.7ZM577.4 630.08L561.765 636.754L566.798 648.544L579.518 646.948L577.4 630.08ZM553.64 574.42L569.275 567.746L554.231 532.504L538.199 567.308L553.64 574.42ZM527.9 630.3L531.922 613.783L506.622 607.623L502.6 624.14L498.578 640.657L523.878 646.817L527.9 630.3ZM502.6 624.14L517.011 633.158L559.691 564.958L545.28 555.94L530.869 546.922L488.189 615.122L502.6 624.14ZM545.28 555.94L560.15 547.7L521.87 478.62L507 486.86L492.13 495.1L530.41 564.18L545.28 555.94ZM507 486.86L509.046 503.736L559.866 497.576L557.82 480.7L555.774 463.824L504.954 469.984L507 486.86ZM557.82 480.7L541.806 486.405L561.166 540.745L577.18 535.04L593.194 529.335L573.834 474.995L557.82 480.7ZM577.18 535.04L592.615 542.164L617.695 487.824L602.26 480.7L586.825 473.576L561.745 527.916L577.18 535.04ZM602.26 480.7L598.374 497.25L623.674 503.19L627.56 486.64L631.446 470.09L606.146 464.15L602.26 480.7ZM627.56 486.64L613.162 477.601L570.482 545.581L584.88 554.62L599.278 563.659L641.958 495.679L627.56 486.64ZM584.88 554.62L570.48 563.655L613.82 632.735L628.22 623.7L642.62 614.665L599.28 545.585L584.88 554.62ZM628.22 623.7L626.102 606.832L575.282 613.212L577.4 630.08L579.518 646.948L630.338 640.568L628.22 623.7ZM577.4 630.08L593.035 623.406L569.275 567.746L553.64 574.42L538.005 581.094L561.765 636.754L577.4 630.08ZM553.64 574.42L538.199 567.308L512.459 623.188L527.9 630.3L543.341 637.412L569.081 581.532L553.64 574.42Z" fill="white" mask="url(#path-5-outside-2_2003_8)"/>
<path d="M384 0H695C724.271 0 748 23.7289 748 53V364H384V0Z" fill="black"/>
<mask id="path-8-outside-3_2003_8" maskUnits="userSpaceOnUse" x="492" y="72" width="140" height="195" fill="black">
<rect fill="white" x="492" y="72" width="140" height="195"/>
<path d="M562 249.28C550.413 249.28 540.587 247.887 532.52 245.1C524.453 242.46 517.927 239.087 512.94 234.98C511.62 228.527 510.667 222.293 510.08 216.28C509.493 210.12 509.2 204.18 509.2 198.46C509.2 185.407 510.52 173.233 513.16 161.94C515.8 150.647 519.32 140.453 523.72 131.36C528.267 122.12 533.253 114.2 538.68 107.6C544.107 101 549.533 95.8667 554.96 92.2C565.96 96.7467 575.933 104.08 584.88 114.2C593.973 124.32 601.16 136.567 606.44 150.94C611.867 165.167 614.58 181.007 614.58 198.46C614.58 209.607 613.187 218.993 610.4 226.62C607.613 234.1 602.407 239.747 594.78 243.56C587.3 247.373 576.373 249.28 562 249.28ZM549.24 227.94C555.4 227.94 561.56 227.5 567.72 226.62C573.88 225.74 579.307 224.493 584 222.88C585.613 216.133 586.64 210.193 587.08 205.06C587.667 199.927 587.96 194.427 587.96 188.56C587.96 176.973 587.007 166.34 585.1 156.66C583.193 146.98 580.407 138.253 576.74 130.48C567.207 139.28 559.067 149.033 552.32 159.74C545.573 170.3 540.367 181.3 536.7 192.74C533.18 204.18 531.42 215.4 531.42 226.4C534.06 226.987 536.847 227.427 539.78 227.72C542.86 227.867 546.013 227.94 549.24 227.94Z"/>
</mask>
<path d="M562 249.28C550.413 249.28 540.587 247.887 532.52 245.1C524.453 242.46 517.927 239.087 512.94 234.98C511.62 228.527 510.667 222.293 510.08 216.28C509.493 210.12 509.2 204.18 509.2 198.46C509.2 185.407 510.52 173.233 513.16 161.94C515.8 150.647 519.32 140.453 523.72 131.36C528.267 122.12 533.253 114.2 538.68 107.6C544.107 101 549.533 95.8667 554.96 92.2C565.96 96.7467 575.933 104.08 584.88 114.2C593.973 124.32 601.16 136.567 606.44 150.94C611.867 165.167 614.58 181.007 614.58 198.46C614.58 209.607 613.187 218.993 610.4 226.62C607.613 234.1 602.407 239.747 594.78 243.56C587.3 247.373 576.373 249.28 562 249.28ZM549.24 227.94C555.4 227.94 561.56 227.5 567.72 226.62C573.88 225.74 579.307 224.493 584 222.88C585.613 216.133 586.64 210.193 587.08 205.06C587.667 199.927 587.96 194.427 587.96 188.56C587.96 176.973 587.007 166.34 585.1 156.66C583.193 146.98 580.407 138.253 576.74 130.48C567.207 139.28 559.067 149.033 552.32 159.74C545.573 170.3 540.367 181.3 536.7 192.74C533.18 204.18 531.42 215.4 531.42 226.4C534.06 226.987 536.847 227.427 539.78 227.72C542.86 227.867 546.013 227.94 549.24 227.94Z" fill="black"/>
<path d="M532.52 245.1L538.071 229.032L537.94 228.986L537.808 228.943L532.52 245.1ZM512.94 234.98L496.285 238.387L497.49 244.279L502.133 248.103L512.94 234.98ZM510.08 216.28L493.157 217.892L493.158 217.911L493.16 217.931L510.08 216.28ZM513.16 161.94L496.606 158.07L496.606 158.07L513.16 161.94ZM523.72 131.36L508.467 123.854L508.442 123.905L508.417 123.955L523.72 131.36ZM538.68 107.6L551.811 118.397L551.811 118.397L538.68 107.6ZM554.96 92.2L561.454 76.4892L553.012 72.9997L545.442 78.114L554.96 92.2ZM584.88 114.2L572.144 125.46L572.189 125.511L572.235 125.562L584.88 114.2ZM606.44 150.94L590.483 156.802L590.519 156.901L590.556 156.999L606.44 150.94ZM610.4 226.62L626.33 232.555L626.349 232.505L626.368 232.454L610.4 226.62ZM594.78 243.56L587.177 228.355L587.118 228.384L587.059 228.415L594.78 243.56ZM567.72 226.62L565.316 209.791L565.316 209.791L567.72 226.62ZM584 222.88L589.526 238.957L598.361 235.92L600.534 226.834L584 222.88ZM587.08 205.06L570.19 203.13L570.163 203.369L570.142 203.608L587.08 205.06ZM585.1 156.66L601.78 153.375L601.78 153.375L585.1 156.66ZM576.74 130.48L592.115 123.227L582.232 102.275L565.209 117.988L576.74 130.48ZM552.32 159.74L566.646 168.893L566.674 168.848L566.703 168.803L552.32 159.74ZM536.7 192.74L520.511 187.551L520.481 187.646L520.452 187.741L536.7 192.74ZM531.42 226.4H514.42V240.037L527.732 242.995L531.42 226.4ZM539.78 227.72L538.088 244.636L538.529 244.68L538.971 244.701L539.78 227.72ZM562 249.28V232.28C551.673 232.28 543.841 231.025 538.071 229.032L532.52 245.1L526.969 261.168C537.333 264.748 549.154 266.28 562 266.28V249.28ZM532.52 245.1L537.808 228.943C531.155 226.766 526.675 224.268 523.747 221.857L512.94 234.98L502.133 248.103C509.179 253.905 517.751 258.154 527.232 261.257L532.52 245.1ZM512.94 234.98L529.595 231.573C528.383 225.649 527.524 220.003 527 214.629L510.08 216.28L493.16 217.931C493.809 224.583 494.857 231.404 496.285 238.387L512.94 234.98ZM510.08 216.28L527.003 214.668C526.464 209.001 526.2 203.6 526.2 198.46H509.2H492.2C492.2 204.76 492.523 211.239 493.157 217.892L510.08 216.28ZM509.2 198.46H526.2C526.2 186.549 527.405 175.688 529.714 165.81L513.16 161.94L496.606 158.07C493.635 170.779 492.2 184.264 492.2 198.46H509.2ZM513.16 161.94L529.714 165.81C532.109 155.561 535.242 146.578 539.023 138.765L523.72 131.36L508.417 123.955C503.398 134.329 499.491 145.732 496.606 158.07L513.16 161.94ZM523.72 131.36L538.973 138.866C543.056 130.57 547.365 123.804 551.811 118.397L538.68 107.6L525.549 96.8032C519.141 104.596 513.478 113.67 508.467 123.854L523.72 131.36ZM538.68 107.6L551.811 118.397C556.496 112.699 560.748 108.806 564.478 106.286L554.96 92.2L545.442 78.114C538.319 82.9272 531.718 89.3005 525.549 96.8032L538.68 107.6ZM554.96 92.2L548.466 107.911C556.769 111.343 564.679 117.017 572.144 125.46L584.88 114.2L597.616 102.94C587.187 91.1434 575.151 82.1506 561.454 76.4892L554.96 92.2ZM584.88 114.2L572.235 125.562C579.715 133.887 585.854 144.203 590.483 156.802L606.44 150.94L622.397 145.078C616.466 128.931 608.232 114.753 597.525 102.838L584.88 114.2ZM606.44 150.94L590.556 156.999C595.145 169.03 597.58 182.778 597.58 198.46H614.58H631.58C631.58 179.235 628.588 161.304 622.324 144.881L606.44 150.94ZM614.58 198.46H597.58C597.58 208.306 596.334 215.582 594.433 220.786L610.4 226.62L626.368 232.454C630.04 222.405 631.58 210.907 631.58 198.46H614.58ZM610.4 226.62L594.47 220.685C593.294 223.841 591.243 226.322 587.177 228.355L594.78 243.56L602.383 258.765C613.571 253.171 621.933 244.359 626.33 232.555L610.4 226.62ZM594.78 243.56L587.059 228.415C583.106 230.43 575.349 232.28 562 232.28V249.28V266.28C577.398 266.28 591.494 264.317 602.501 258.705L594.78 243.56ZM549.24 227.94V244.94C556.213 244.94 563.176 244.442 570.124 243.449L567.72 226.62L565.316 209.791C559.944 210.558 554.587 210.94 549.24 210.94V227.94ZM567.72 226.62L570.124 243.449C577.092 242.454 583.601 240.993 589.526 238.957L584 222.88L578.474 206.803C575.012 207.993 570.668 209.026 565.316 209.791L567.72 226.62ZM584 222.88L600.534 226.834C602.281 219.526 603.486 212.719 604.018 206.512L587.08 205.06L570.142 203.608C569.794 207.667 568.945 212.74 567.466 218.926L584 222.88ZM587.08 205.06L603.97 206.99C604.639 201.137 604.96 194.987 604.96 188.56H587.96H570.96C570.96 193.866 570.694 198.716 570.19 203.13L587.08 205.06ZM587.96 188.56H604.96C604.96 176.056 603.932 164.305 601.78 153.375L585.1 156.66L568.42 159.945C570.081 168.375 570.96 177.891 570.96 188.56H587.96ZM585.1 156.66L601.78 153.375C599.642 142.521 596.458 132.435 592.115 123.227L576.74 130.48L561.365 137.733C564.355 144.072 566.745 151.439 568.42 159.945L585.1 156.66ZM576.74 130.48L565.209 117.988C554.607 127.775 545.5 138.675 537.937 150.677L552.32 159.74L566.703 168.803C572.633 159.391 579.807 150.785 588.271 142.972L576.74 130.48ZM552.32 159.74L537.994 150.587C530.492 162.329 524.644 174.656 520.511 187.551L536.7 192.74L552.889 197.929C556.089 187.944 560.654 178.271 566.646 168.893L552.32 159.74ZM536.7 192.74L520.452 187.741C516.477 200.658 514.42 213.563 514.42 226.4H531.42H548.42C548.42 217.237 549.883 207.702 552.948 197.739L536.7 192.74ZM531.42 226.4L527.732 242.995C531.086 243.741 534.543 244.281 538.088 244.636L539.78 227.72L541.472 210.804C539.15 210.572 537.034 210.233 535.108 209.805L531.42 226.4ZM539.78 227.72L538.971 244.701C542.333 244.861 545.756 244.94 549.24 244.94V227.94V210.94C546.271 210.94 543.387 210.873 540.589 210.739L539.78 227.72Z" fill="white" mask="url(#path-8-outside-3_2003_8)"/>
<path d="M0 383H364V747H53C23.7289 747 0 723.271 0 694V383Z" fill="black"/>
<mask id="path-11-outside-4_2003_8" maskUnits="userSpaceOnUse" x="108" y="455" width="140" height="195" fill="black">
<rect fill="white" x="108" y="455" width="140" height="195"/>
<path d="M178 632.28C166.413 632.28 156.587 630.887 148.52 628.1C140.453 625.46 133.927 622.087 128.94 617.98C127.62 611.527 126.667 605.293 126.08 599.28C125.493 593.12 125.2 587.18 125.2 581.46C125.2 568.407 126.52 556.233 129.16 544.94C131.8 533.647 135.32 523.453 139.72 514.36C144.267 505.12 149.253 497.2 154.68 490.6C160.107 484 165.533 478.867 170.96 475.2C181.96 479.747 191.933 487.08 200.88 497.2C209.973 507.32 217.16 519.567 222.44 533.94C227.867 548.167 230.58 564.007 230.58 581.46C230.58 592.607 229.187 601.993 226.4 609.62C223.613 617.1 218.407 622.747 210.78 626.56C203.3 630.373 192.373 632.28 178 632.28ZM165.24 610.94C171.4 610.94 177.56 610.5 183.72 609.62C189.88 608.74 195.307 607.493 200 605.88C201.613 599.133 202.64 593.193 203.08 588.06C203.667 582.927 203.96 577.427 203.96 571.56C203.96 559.973 203.007 549.34 201.1 539.66C199.193 529.98 196.407 521.253 192.74 513.48C183.207 522.28 175.067 532.033 168.32 542.74C161.573 553.3 156.367 564.3 152.7 575.74C149.18 587.18 147.42 598.4 147.42 609.4C150.06 609.987 152.847 610.427 155.78 610.72C158.86 610.867 162.013 610.94 165.24 610.94Z"/>
</mask>
<path d="M178 632.28C166.413 632.28 156.587 630.887 148.52 628.1C140.453 625.46 133.927 622.087 128.94 617.98C127.62 611.527 126.667 605.293 126.08 599.28C125.493 593.12 125.2 587.18 125.2 581.46C125.2 568.407 126.52 556.233 129.16 544.94C131.8 533.647 135.32 523.453 139.72 514.36C144.267 505.12 149.253 497.2 154.68 490.6C160.107 484 165.533 478.867 170.96 475.2C181.96 479.747 191.933 487.08 200.88 497.2C209.973 507.32 217.16 519.567 222.44 533.94C227.867 548.167 230.58 564.007 230.58 581.46C230.58 592.607 229.187 601.993 226.4 609.62C223.613 617.1 218.407 622.747 210.78 626.56C203.3 630.373 192.373 632.28 178 632.28ZM165.24 610.94C171.4 610.94 177.56 610.5 183.72 609.62C189.88 608.74 195.307 607.493 200 605.88C201.613 599.133 202.64 593.193 203.08 588.06C203.667 582.927 203.96 577.427 203.96 571.56C203.96 559.973 203.007 549.34 201.1 539.66C199.193 529.98 196.407 521.253 192.74 513.48C183.207 522.28 175.067 532.033 168.32 542.74C161.573 553.3 156.367 564.3 152.7 575.74C149.18 587.18 147.42 598.4 147.42 609.4C150.06 609.987 152.847 610.427 155.78 610.72C158.86 610.867 162.013 610.94 165.24 610.94Z" fill="black"/>
<path d="M148.52 628.1L154.071 612.032L153.94 611.986L153.808 611.943L148.52 628.1ZM128.94 617.98L112.285 621.387L113.49 627.279L118.133 631.103L128.94 617.98ZM126.08 599.28L109.157 600.892L109.158 600.911L109.16 600.931L126.08 599.28ZM129.16 544.94L112.606 541.07L112.606 541.07L129.16 544.94ZM139.72 514.36L124.467 506.854L124.442 506.905L124.417 506.955L139.72 514.36ZM154.68 490.6L167.811 501.397L167.811 501.397L154.68 490.6ZM170.96 475.2L177.454 459.489L169.012 456L161.442 461.114L170.96 475.2ZM200.88 497.2L188.144 508.46L188.189 508.511L188.235 508.562L200.88 497.2ZM222.44 533.94L206.483 539.802L206.519 539.901L206.556 539.999L222.44 533.94ZM226.4 609.62L242.33 615.555L242.349 615.505L242.368 615.454L226.4 609.62ZM210.78 626.56L203.177 611.355L203.118 611.384L203.059 611.415L210.78 626.56ZM183.72 609.62L181.316 592.791L181.316 592.791L183.72 609.62ZM200 605.88L205.526 621.957L214.361 618.92L216.534 609.834L200 605.88ZM203.08 588.06L186.19 586.13L186.163 586.369L186.142 586.608L203.08 588.06ZM201.1 539.66L217.78 536.375L217.78 536.375L201.1 539.66ZM192.74 513.48L208.115 506.227L198.232 485.275L181.209 500.988L192.74 513.48ZM168.32 542.74L182.646 551.893L182.674 551.848L182.703 551.803L168.32 542.74ZM152.7 575.74L136.511 570.551L136.481 570.646L136.452 570.741L152.7 575.74ZM147.42 609.4H130.42V623.037L143.732 625.995L147.42 609.4ZM155.78 610.72L154.088 627.636L154.529 627.68L154.971 627.701L155.78 610.72ZM178 632.28V615.28C167.673 615.28 159.841 614.025 154.071 612.032L148.52 628.1L142.969 644.168C153.333 647.748 165.154 649.28 178 649.28V632.28ZM148.52 628.1L153.808 611.943C147.155 609.766 142.675 607.268 139.747 604.857L128.94 617.98L118.133 631.103C125.179 636.905 133.751 641.154 143.232 644.257L148.52 628.1ZM128.94 617.98L145.595 614.573C144.383 608.649 143.524 603.003 143 597.629L126.08 599.28L109.16 600.931C109.809 607.583 110.857 614.404 112.285 621.387L128.94 617.98ZM126.08 599.28L143.003 597.668C142.464 592.001 142.2 586.6 142.2 581.46H125.2H108.2C108.2 587.76 108.523 594.239 109.157 600.892L126.08 599.28ZM125.2 581.46H142.2C142.2 569.549 143.405 558.688 145.714 548.81L129.16 544.94L112.606 541.07C109.635 553.779 108.2 567.264 108.2 581.46H125.2ZM129.16 544.94L145.714 548.81C148.109 538.561 151.242 529.578 155.023 521.765L139.72 514.36L124.417 506.955C119.398 517.329 115.491 528.732 112.606 541.07L129.16 544.94ZM139.72 514.36L154.973 521.866C159.056 513.57 163.365 506.804 167.811 501.397L154.68 490.6L141.549 479.803C135.141 487.596 129.478 496.67 124.467 506.854L139.72 514.36ZM154.68 490.6L167.811 501.397C172.496 495.699 176.748 491.806 180.478 489.286L170.96 475.2L161.442 461.114C154.319 465.927 147.718 472.301 141.549 479.803L154.68 490.6ZM170.96 475.2L164.466 490.911C172.769 494.343 180.679 500.017 188.144 508.46L200.88 497.2L213.616 485.94C203.187 474.143 191.151 465.151 177.454 459.489L170.96 475.2ZM200.88 497.2L188.235 508.562C195.715 516.887 201.854 527.203 206.483 539.802L222.44 533.94L238.397 528.078C232.466 511.931 224.232 497.753 213.525 485.838L200.88 497.2ZM222.44 533.94L206.556 539.999C211.145 552.03 213.58 565.778 213.58 581.46H230.58H247.58C247.58 562.235 244.588 544.304 238.324 527.881L222.44 533.94ZM230.58 581.46H213.58C213.58 591.306 212.334 598.582 210.433 603.786L226.4 609.62L242.368 615.454C246.04 605.405 247.58 593.907 247.58 581.46H230.58ZM226.4 609.62L210.47 603.685C209.294 606.841 207.243 609.322 203.177 611.355L210.78 626.56L218.383 641.765C229.571 636.171 237.933 627.359 242.33 615.555L226.4 609.62ZM210.78 626.56L203.059 611.415C199.106 613.43 191.349 615.28 178 615.28V632.28V649.28C193.398 649.28 207.494 647.317 218.501 641.705L210.78 626.56ZM165.24 610.94V627.94C172.213 627.94 179.176 627.442 186.124 626.449L183.72 609.62L181.316 592.791C175.944 593.558 170.587 593.94 165.24 593.94V610.94ZM183.72 609.62L186.124 626.449C193.092 625.454 199.601 623.993 205.526 621.957L200 605.88L194.474 589.803C191.012 590.993 186.668 592.026 181.316 592.791L183.72 609.62ZM200 605.88L216.534 609.834C218.281 602.526 219.486 595.719 220.018 589.512L203.08 588.06L186.142 586.608C185.794 590.667 184.945 595.74 183.466 601.926L200 605.88ZM203.08 588.06L219.97 589.99C220.639 584.137 220.96 577.987 220.96 571.56H203.96H186.96C186.96 576.866 186.694 581.716 186.19 586.13L203.08 588.06ZM203.96 571.56H220.96C220.96 559.056 219.932 547.305 217.78 536.375L201.1 539.66L184.42 542.945C186.081 551.375 186.96 560.891 186.96 571.56H203.96ZM201.1 539.66L217.78 536.375C215.642 525.521 212.458 515.435 208.115 506.227L192.74 513.48L177.365 520.733C180.355 527.072 182.745 534.439 184.42 542.945L201.1 539.66ZM192.74 513.48L181.209 500.988C170.607 510.775 161.5 521.675 153.937 533.677L168.32 542.74L182.703 551.803C188.633 542.391 195.807 533.785 204.271 525.972L192.74 513.48ZM168.32 542.74L153.994 533.587C146.492 545.329 140.644 557.656 136.511 570.551L152.7 575.74L168.889 580.929C172.089 570.944 176.654 561.271 182.646 551.893L168.32 542.74ZM152.7 575.74L136.452 570.741C132.477 583.658 130.42 596.563 130.42 609.4H147.42H164.42C164.42 600.237 165.883 590.702 168.948 580.739L152.7 575.74ZM147.42 609.4L143.732 625.995C147.086 626.741 150.543 627.281 154.088 627.636L155.78 610.72L157.472 593.804C155.15 593.572 153.034 593.233 151.108 592.805L147.42 609.4ZM155.78 610.72L154.971 627.701C158.333 627.861 161.756 627.94 165.24 627.94V610.94V593.94C162.271 593.94 159.387 593.873 156.589 593.739L155.78 610.72Z" fill="white" mask="url(#path-11-outside-4_2003_8)"/>
</svg>
